<?xml version="1.0" encoding="UTF-8" standalone="no"?>
<svg
   xmlns:dc="http://purl.org/dc/elements/1.1/"
   xmlns:cc="http://creativecommons.org/ns#"
   xmlns:rdf="http://www.w3.org/1999/02/22-rdf-syntax-ns#"
   xmlns:svg="http://www.w3.org/2000/svg"
   xmlns="http://www.w3.org/2000/svg"
   xmlns:sodipodi="http://sodipodi.sourceforge.net/DTD/sodipodi-0.dtd"
   xmlns:inkscape="http://www.inkscape.org/namespaces/inkscape"
   version="1.1"
   width="768"
   height="768"
   viewBox="0 0 768 768"
   id="svg60"
   sodipodi:docname="alert.svg"
   inkscape:version="0.92.4 (unknown)">
  <metadata
     id="metadata66">
    <rdf:RDF>
      <cc:Work
         rdf:about="">
        <dc:format>image/svg+xml</dc:format>
        <dc:type
           rdf:resource="http://purl.org/dc/dcmitype/StillImage" />
      </cc:Work>
    </rdf:RDF>
  </metadata>
  <defs
     id="defs64" />
  <sodipodi:namedview
     pagecolor="#ffffff"
     bordercolor="#666666"
     borderopacity="1"
     objecttolerance="10"
     gridtolerance="10"
     guidetolerance="10"
     inkscape:pageopacity="0"
     inkscape:pageshadow="2"
     inkscape:window-width="1664"
     inkscape:window-height="1355"
     id="namedview62"
     showgrid="false"
     inkscape:zoom="1.4114583"
     inkscape:cx="376.56089"
     inkscape:cy="384"
     inkscape:window-x="0"
     inkscape:window-y="48"
     inkscape:window-maximized="0"
     inkscape:current-layer="svg60" />
  <path
     d="M356.736 139.968c2.336-3.936 5.92-7.744 10.688-10.624 7.552-4.576 16.192-5.696 24.192-3.712s15.168 6.912 19.648 14.336l270.912 452.256c2.24 3.84 3.808 8.576 4.096 13.888-0.48 11.776-3.808 18.912-9.056 24.288-5.76 5.888-13.664 9.536-22.176 9.632l-541.984-0.032c-4.864-0.032-10.272-1.312-15.392-4.288-7.648-4.416-12.768-11.488-14.912-19.424s-1.216-16.608 2.944-23.84zM301.824 107.072l-271.040 452.48c-13.504 23.392-16.192 49.6-9.856 73.28s21.76 45.056 44.736 58.304c14.848 8.576 31.232 12.8 47.2 12.864h542.176c26.848-0.288 50.784-11.328 67.936-28.864s27.648-41.696 27.36-68.192c-0.192-17.152-4.896-33.408-12.992-47.168l-271.168-452.704c-13.824-22.816-35.52-37.792-59.328-43.616s-49.952-2.592-72.608 11.168c-13.728 8.32-24.8 19.68-32.384 32.448zM352 288v128c0 17.664 14.336 32 32 32s32-14.336 32-32v-128c0-17.664-14.336-32-32-32s-32 14.336-32 32zM384 576c17.664 0 32-14.336 32-32s-14.336-32-32-32-32 14.336-32 32 14.336 32 32 32z"
     id="path58"
     style="fill:#c62323;fill-opacity:1" />
</svg>
