<?xml version="1.0" encoding="UTF-8" standalone="no"?>
<!-- Generated by IcoMoon.io -->

<svg
   xmlns:dc="http://purl.org/dc/elements/1.1/"
   xmlns:cc="http://creativecommons.org/ns#"
   xmlns:rdf="http://www.w3.org/1999/02/22-rdf-syntax-ns#"
   xmlns:svg="http://www.w3.org/2000/svg"
   xmlns="http://www.w3.org/2000/svg"
   xmlns:sodipodi="http://sodipodi.sourceforge.net/DTD/sodipodi-0.dtd"
   xmlns:inkscape="http://www.inkscape.org/namespaces/inkscape"
   version="1.1"
   width="768"
   height="768"
   viewBox="0 0 768 768"
   id="svg4"
   sodipodi:docname="info.svg"
   inkscape:version="0.92.4 (unknown)">
  <metadata
     id="metadata10">
    <rdf:RDF>
      <cc:Work
         rdf:about="">
        <dc:format>image/svg+xml</dc:format>
        <dc:type
           rdf:resource="http://purl.org/dc/dcmitype/StillImage" />
      </cc:Work>
    </rdf:RDF>
  </metadata>
  <defs
     id="defs8" />
  <sodipodi:namedview
     pagecolor="#ffffff"
     bordercolor="#666666"
     borderopacity="1"
     objecttolerance="10"
     gridtolerance="10"
     guidetolerance="10"
     inkscape:pageopacity="0"
     inkscape:pageshadow="2"
     inkscape:window-width="841"
     inkscape:window-height="480"
     id="namedview6"
     showgrid="false"
     inkscape:zoom="0.30729167"
     inkscape:cx="384"
     inkscape:cy="384"
     inkscape:window-x="0"
     inkscape:window-y="48"
     inkscape:window-maximized="0"
     inkscape:current-layer="svg4" />
  <path
     d="M736 384c0-97.184-39.424-185.248-103.104-248.896s-151.712-103.104-248.896-103.104-185.248 39.424-248.896 103.104-103.104 151.712-103.104 248.896 39.424 185.248 103.104 248.896 151.712 103.104 248.896 103.104 185.248-39.424 248.896-103.104 103.104-151.712 103.104-248.896zM672 384c0 79.552-32.192 151.488-84.352 203.648s-124.096 84.352-203.648 84.352-151.488-32.192-203.648-84.352-84.352-124.096-84.352-203.648 32.192-151.488 84.352-203.648 124.096-84.352 203.648-84.352 151.488 32.192 203.648 84.352 84.352 124.096 84.352 203.648zM416 512v-128c0-17.664-14.336-32-32-32s-32 14.336-32 32v128c0 17.664 14.336 32 32 32s32-14.336 32-32zM384 288c17.664 0 32-14.336 32-32s-14.336-32-32-32-32 14.336-32 32 14.336 32 32 32z"
     id="path2"
     style="fill:#23c6a8;fill-opacity:1" />
</svg>
