<!-- Generated by IcoMoon.io -->
<svg version="1.1" xmlns="http://www.w3.org/2000/svg" width="768" height="768" viewBox="0 0 768 768">
<title></title>
<g id="icomoon-ignore">
</g>
<path d="M352 288v96c0 8.832 3.584 16.832 9.376 22.624l48 48c12.512 12.512 32.768 12.512 45.248 0s12.512-32.768 0-45.248l-38.624-38.624v-82.752c0-17.664-14.336-32-32-32s-32 14.336-32 32zM490.56 616.832l-5.312 58.016c-0.768 8.512-4.704 15.84-10.656 21.056-5.76 5.088-13.28 8.096-21.44 8.096h-138.592c-8.64 0.032-16.288-3.2-22.080-8.608-5.6-5.248-9.312-12.448-10.080-20.576l-5.28-58.144c32.512 14.976 68.736 23.328 106.88 23.328 38.016 0 74.112-8.288 106.56-23.168zM261.984 235.744c33.184-27.36 75.648-43.744 122.016-43.744 53.024 0 100.992 21.44 135.776 56.224s56.224 82.752 56.224 135.776-21.44 100.992-56.224 135.776c-3.328 3.328-6.752 6.528-10.336 9.6-1.12 0.992-2.272 1.952-3.424 2.88-33.184 27.36-75.648 43.744-122.016 43.744-53.024 0-100.992-21.44-135.776-56.224s-56.224-82.752-56.224-135.776 21.44-100.992 56.224-135.776c3.328-3.328 6.752-6.528 10.336-9.6 1.12-0.992 2.272-1.952 3.424-2.88zM559.712 197.824l-10.080-110.56c-2.24-24.192-13.376-45.76-30.016-61.344-17.248-16.16-40.512-26.016-65.856-25.92h-139.328c-24.16 0.096-46.528 9.152-63.52 24.224-17.632 15.616-29.6 37.824-31.904 63.104l-10.048 109.856c-2.016 1.888-4.032 3.84-5.984 5.792-46.272 46.304-74.976 110.336-74.976 181.024s28.704 134.72 74.976 181.024c1.856 1.856 3.744 3.68 5.632 5.472l10.080 110.24c2.24 24.192 13.376 45.76 30.016 61.344 17.248 16.16 40.512 26.016 65.856 25.92h138.528c24.288 0.032 46.816-9.024 63.904-24.128 17.696-15.648 29.728-37.888 32-63.2l10.048-109.856c2.016-1.888 4.032-3.84 5.984-5.792 46.272-46.304 74.976-110.336 74.976-181.024s-28.704-134.72-74.976-181.024c-1.728-1.728-3.52-3.456-5.28-5.152zM277.44 151.168l5.312-58.016c0.768-8.48 4.704-15.808 10.592-21.024 5.728-5.088 13.184-8.096 21.344-8.128h139.072c8.64-0.032 16.288 3.2 22.080 8.608 5.6 5.248 9.312 12.448 10.080 20.576l5.312 58.272c-32.64-15.040-68.96-23.456-107.232-23.456-38.016 0-74.112 8.288-106.56 23.168z"></path>
</svg>
